<?xml version="1.0" encoding="utf-8"?>
<!-- Generator: Adobe Illustrator 16.0.0, SVG Export Plug-In . SVG Version: 6.00 Build 0)  -->
<!DOCTYPE svg PUBLIC "-//W3C//DTD SVG 1.1//EN" "http://www.w3.org/Graphics/SVG/1.1/DTD/svg11.dtd">
<svg version="1.1" id="圖層_1" xmlns="http://www.w3.org/2000/svg" xmlns:xlink="http://www.w3.org/1999/xlink" x="0px" y="0px"
	 width="478px" height="216px" viewBox="0 0 478 216" enable-background="new 0 0 478 216" xml:space="preserve">
<g>
	<g>
		<g>
			<path fill="#3E3A39" d="M71.569,578.251H91.59c1.084,0,2.346,6.032,3.785,18.092c1.439,12.062,2.783,25.76,4.035,41.095
				c0,1.832,0.313,2.745,0.937,2.745h0.939l0.937-0.913v-3.357l3.755-26.237l5.006-31.119l0.312-0.305h23.774
				c0.832,0,1.769,5.288,2.813,15.864c0.418,0.652,1.669,9.5,3.753,26.543c1.003,4.841,1.837,11.146,2.505,18.915l0.938,0.609h0.312
				c1.044,0,2.556-8.978,4.538-26.938c1.979-17.96,2.97-28.811,2.97-32.554c0.585-1.625,1.105-2.44,1.564-2.44h19.707l0.937,0.608
				c-7.508,48.897-11.779,78.49-12.823,88.781c-0.668,1.424-1.606,2.136-2.816,2.136h-25.649c-2.084,0-4.859-17.633-8.32-52.899
				c-0.5-7.242-1.376-10.863-2.626-10.863c-0.836,0.285-1.252,1.505-1.252,3.661c-5.047,39.864-8.07,59.798-9.071,59.798
				l-1.563,0.304H86.271c-2.084,0-3.596-3.834-4.532-11.5c-0.94-7.669-4.643-34.141-11.105-79.417L71.569,578.251z"/>
		</g>
	</g>
	<path fill="#54C3F1" d="M518.125,632.24l-10.381-30.771c-11.349,3.817-23.624-2.273-27.452-13.609
		c-3.817-11.337,2.267-23.628,13.608-27.45l-10.383-30.772c-1.801-5.35-7.605-8.23-12.953-6.424l-163.707,55.038h45.839l0.915,0.917
		l-0.061,14.338c-0.205,1.627-0.915,2.441-2.137,2.441h-14.887c-1.426,0-2.136,0.712-2.136,2.134v69.253
		c0,1.629-0.61,2.442-1.832,2.442h-18.303c-1.425,0-2.138-1.017-2.138-3.051v-55.221v-14.339l-1.709-1.219h-14.46
		c-2.035-0.124-3.052-0.591-3.052-1.404v-11.599l-27.422,9.219c-5.348,1.796-8.224,7.603-6.415,12.952l10.369,30.778
		c11.342-3.826,23.627,2.268,27.449,13.608c3.828,11.33-2.263,23.623-13.6,27.447l10.371,30.775
		c1.807,5.348,7.609,8.227,12.959,6.425l138.442-46.546c-0.563-0.92-1.146-2.123-1.747-3.625
		c-1.015-1.217-4.573-7.319-10.676-18.303h-0.61c-0.61,0.365-5.289,8.298-14.034,23.797l-1.525,0.304h-21.965
		c-0.409,0-0.612-0.304-0.612-0.915c17.085-29.45,25.626-44.503,25.626-45.152c-1.098-2.521-9.639-17.471-25.626-44.85l0.612-0.608
		h22.269c1.303,0,3.029,2.339,5.188,7.017l10.068,16.779c1.586-2.112,6.263-9.944,14.032-23.491l1.222-0.305h22.271l0.609,0.608
		c-17.084,29.615-25.627,44.666-25.627,45.154c9.864,17.096,16.86,29.305,21.03,36.694l46.138-15.513
		C517.048,643.396,519.924,637.59,518.125,632.24z M384.729,668.861l-0.913,0.915h-19.832c-0.815-0.284-1.222-1.198-1.222-2.746
		v-86.033c0-1.546,0.406-2.46,1.222-2.746h19.525c0.813,0.286,1.22,1.2,1.22,2.746V668.861z"/>
	<g>
		<g>
			<path fill="#3E3A39" d="M246.674,632.963c0,4.571-1.452,7.172-4.352,7.807c-0.492,0.091-5.109,0.588-13.856,1.493
				c-5.267,0.591-13.121,1.29-23.566,2.105c0.624,2.943,2.521,5.185,5.692,6.722c2.586,1.269,5.532,1.9,8.836,1.9
				c3.973,0,7.966-1.085,11.984-3.259c1.694-1.086,3.391-2.172,5.087-3.259c0.936,0.453,2.511,2.762,4.721,6.928
				c2.207,4.164,3.313,6.811,3.313,7.943c0,0.316-0.337,0.836-1.007,1.562c-5.442,5.93-13.9,8.895-25.371,8.895
				c-10.621,0-19.188-3.147-25.707-9.439c-6.694-6.383-10.041-14.912-10.041-25.598c0-10.41,2.99-18.942,8.972-25.596
				c6.16-6.881,14.325-10.32,24.5-10.32c8.568,0,15.845,3.168,21.826,9.505C243.684,616.688,246.674,624.226,246.674,632.963z
				 M228.403,627.865c0-3.05-1.241-5.732-3.725-8.044c-2.486-2.315-5.445-3.471-8.893-3.471c-3.554,0-6.491,1.304-8.805,3.91
				c-2.146,2.413-3.219,5.243-3.219,8.49c0,1.328,0.79,1.991,2.37,1.991c4.181,0,10.672-0.563,19.479-1.695
				C227.477,628.799,228.403,628.408,228.403,627.865z"/>
		</g>
	</g>
</g>
<g>
	<g>
		<g>
			<path fill="#3E3A39" d="M16.569,64.251H36.59c1.084,0,2.346,6.032,3.785,18.092c1.439,12.062,2.783,25.76,4.035,41.095
				c0,1.832,0.313,2.745,0.937,2.745h0.939l0.937-0.913v-3.357l3.755-26.237l5.006-31.119l0.312-0.305h23.774
				c0.832,0,1.769,5.288,2.813,15.864c0.418,0.652,1.669,9.5,3.753,26.543c1.003,4.841,1.837,11.146,2.505,18.915l0.938,0.609h0.312
				c1.044,0,2.556-8.978,4.538-26.938c1.979-17.96,2.97-28.811,2.97-32.554c0.585-1.625,1.105-2.44,1.564-2.44h19.707l0.937,0.608
				c-7.508,48.897-11.779,78.49-12.823,88.781c-0.668,1.424-1.606,2.136-2.816,2.136H78.816c-2.084,0-4.859-17.633-8.32-52.899
				c-0.5-7.242-1.376-10.863-2.626-10.863c-0.836,0.285-1.252,1.505-1.252,3.661c-5.047,39.864-8.07,59.798-9.071,59.798
				l-1.563,0.304H31.271c-2.084,0-3.596-3.834-4.532-11.5c-0.94-7.669-4.643-34.141-11.105-79.417L16.569,64.251z"/>
		</g>
	</g>
	<path fill="#54C3F1" d="M463.125,118.24l-10.381-30.771c-11.349,3.817-23.624-2.273-27.452-13.609
		c-3.817-11.337,2.267-23.628,13.608-27.45l-10.383-30.772c-1.801-5.35-7.605-8.23-12.953-6.424L251.857,64.251h45.839l0.915,0.917
		l-0.061,14.338c-0.205,1.627-0.915,2.441-2.137,2.441h-14.887c-1.426,0-2.136,0.712-2.136,2.134v69.253
		c0,1.629-0.61,2.442-1.832,2.442h-18.303c-1.425,0-2.138-1.017-2.138-3.051V97.505V83.166l-1.709-1.219h-14.46
		c-2.035-0.124-3.052-0.591-3.052-1.404V68.944l-27.422,9.219c-5.348,1.796-8.224,7.603-6.415,12.952l10.369,30.778
		c11.342-3.826,23.627,2.268,27.449,13.608c3.828,11.33-2.263,23.623-13.6,27.447l10.371,30.775
		c1.807,5.348,7.609,8.227,12.959,6.425l138.442-46.546c-0.563-0.92-1.146-2.123-1.747-3.625
		c-1.015-1.217-4.573-7.319-10.676-18.303h-0.61c-0.61,0.365-5.289,8.298-14.034,23.797l-1.525,0.304h-21.965
		c-0.409,0-0.612-0.304-0.612-0.915c17.085-29.45,25.626-44.503,25.626-45.152c-1.098-2.521-9.639-17.471-25.626-44.85l0.612-0.608
		h22.269c1.303,0,3.029,2.339,5.188,7.017l10.068,16.779c1.586-2.112,6.263-9.944,14.032-23.491l1.222-0.305h22.271l0.609,0.608
		c-17.084,29.615-25.627,44.666-25.627,45.154c9.864,17.096,16.86,29.305,21.03,36.694l46.138-15.513
		C462.048,129.396,464.924,123.59,463.125,118.24z M329.729,154.861l-0.913,0.915h-19.832c-0.815-0.284-1.222-1.198-1.222-2.746
		V66.997c0-1.546,0.406-2.46,1.222-2.746h19.525c0.813,0.286,1.22,1.2,1.22,2.746V154.861z"/>
	<g>
		<g>
			<path fill="#3E3A39" d="M191.674,118.963c0,4.571-1.452,7.172-4.352,7.807c-0.492,0.091-5.109,0.588-13.856,1.493
				c-5.267,0.591-13.121,1.29-23.566,2.105c0.624,2.943,2.521,5.185,5.692,6.722c2.586,1.269,5.532,1.9,8.836,1.9
				c3.973,0,7.966-1.085,11.984-3.259c1.694-1.086,3.391-2.172,5.087-3.259c0.936,0.453,2.511,2.762,4.721,6.928
				c2.207,4.164,3.313,6.811,3.313,7.943c0,0.316-0.337,0.836-1.007,1.562c-5.442,5.93-13.9,8.895-25.371,8.895
				c-10.621,0-19.188-3.147-25.707-9.439c-6.694-6.383-10.041-14.912-10.041-25.598c0-10.41,2.99-18.942,8.972-25.596
				c6.16-6.881,14.325-10.32,24.5-10.32c8.568,0,15.845,3.168,21.826,9.505C188.684,102.688,191.674,110.226,191.674,118.963z
				 M173.403,113.865c0-3.05-1.241-5.732-3.725-8.044c-2.486-2.315-5.445-3.471-8.893-3.471c-3.554,0-6.491,1.304-8.805,3.91
				c-2.146,2.413-3.219,5.243-3.219,8.49c0,1.328,0.79,1.991,2.37,1.991c4.181,0,10.672-0.563,19.479-1.695
				C172.477,114.799,173.403,114.408,173.403,113.865z"/>
		</g>
	</g>
</g>
</svg>
